<?xml version="1.0" encoding="UTF-8" standalone="no"?><!-- Generator: Gravit.io --><svg xmlns="http://www.w3.org/2000/svg" xmlns:xlink="http://www.w3.org/1999/xlink" style="isolation:isolate" viewBox="0 0 500 500" width="500pt" height="500pt"><defs><clipPath id="_clipPath_P3qcRWmpoMzXiWeV7poxDqYzm0yvUbZm"><rect width="500" height="500"/></clipPath></defs><g clip-path="url(#_clipPath_P3qcRWmpoMzXiWeV7poxDqYzm0yvUbZm)"><path d="M 35 0 L 465 0 C 484.317 0 500 15.683 500 35 L 500 465 C 500 484.317 484.317 500 465 500 L 35 500 C 15.683 500 0 484.317 0 465 L 0 35 C 0 15.683 15.683 0 35 0 Z" style="stroke:none;fill:#FFFFFF;stroke-miterlimit:10;"/><g><g><g><g><g><g><path d=" M 250.02 439.92 L 250.02 366.309 C 327.978 366.309 388.492 289.039 358.558 207.033 C 347.575 176.685 323.24 152.363 292.875 141.386 C 210.826 111.683 133.515 171.949 133.515 249.865 L 133.515 249.865 L 60.08 249.865 C 60.08 125.673 180.246 28.816 310.534 69.496 C 367.387 87.361 412.826 132.561 430.485 189.384 C 471.187 319.818 374.494 439.92 250.02 439.92 Z " fill="rgb(0,128,255)"/></g><path d=" M 250.236 366.524 L 177.016 366.524 L 177.016 293.343 L 177.016 293.343 L 250.236 293.343 L 250.236 293.343 L 250.236 366.524 Z " fill="rgb(0,128,255)"/><path d=" M 177.016 422.917 L 120.594 422.917 L 120.594 422.917 L 120.594 366.524 L 177.016 366.524 L 177.016 422.917 Z " fill="rgb(0,128,255)"/><path d=" M 120.594 366.524 L 73.431 366.524 L 73.431 366.524 L 73.431 319.387 L 73.431 319.387 L 120.594 319.387 L 120.594 319.387 L 120.594 366.524 Z " fill="rgb(0,128,255)"/></g></g></g></g></g></g></svg>